<svg width="16" height="16" viewBox="0 0 16 16" fill="none" xmlns="http://www.w3.org/2000/svg">
<g clip-path="url(#clip0_1129_817)">
<mask id="mask0_1129_817" style="mask-type:luminance" maskUnits="userSpaceOnUse" x="0" y="0" width="16" height="16">
<path d="M0.0574732 0H15.9998V16H0.0574732V0Z" fill="white"/>
</mask>
<g mask="url(#mask0_1129_817)">
<mask id="mask1_1129_817" style="mask-type:luminance" maskUnits="userSpaceOnUse" x="0" y="0" width="16" height="16">
<path d="M0.0574732 0H15.9998V16H0.0574732V0Z" fill="white"/>
</mask>
<g mask="url(#mask1_1129_817)">
<mask id="mask2_1129_817" style="mask-type:luminance" maskUnits="userSpaceOnUse" x="0" y="0" width="16" height="16">
<path d="M0.0574732 0H15.9998V16H0.0574732V0Z" fill="white"/>
</mask>
<g mask="url(#mask2_1129_817)">
<path fill-rule="evenodd" clip-rule="evenodd" d="M15.9998 8C15.9998 3.58177 12.4312 0 8.02865 0C3.62611 0 0.0574732 3.58177 0.0574732 8C0.0574732 12.4182 3.62611 16 8.02865 16C12.4312 16 15.9998 12.4182 15.9998 8Z" fill="#FDEB47"/>
<path fill-rule="evenodd" clip-rule="evenodd" d="M13.6678 8.00529C13.6678 4.87852 11.1428 2.34375 8.02665 2.34375C4.91054 2.34375 2.38551 4.87852 2.38551 8.00529C2.38551 11.1321 4.91054 13.6668 8.02665 13.6668C11.1428 13.6668 13.6678 11.1321 13.6678 8.00529Z" fill="url(#paint0_linear_1129_817)" stroke="#FF8B00" stroke-opacity="0.25098" stroke-width="1.7233" stroke-miterlimit="8"/>
<path fill-rule="evenodd" clip-rule="evenodd" d="M13.6141 7.62891L13.5531 8.231C13.0276 10.7931 10.7528 12.7205 8.02665 12.7205C5.30051 12.7205 3.02565 10.7931 2.49956 8.231L2.43945 7.62891L2.38551 8.16C2.38551 11.2654 4.91054 13.7828 8.02665 13.7828C11.1428 13.7828 13.6678 11.2654 13.6678 8.16L13.6141 7.62891Z" fill="#FF8B00"/>
<path fill-rule="evenodd" clip-rule="evenodd" d="M15.9543 7.50977L15.8378 8.67432C15.0945 12.3366 11.8806 15.0915 8.02865 15.0915C4.17671 15.0915 0.962497 12.3366 0.219347 8.67432L0.102849 7.50977L0.0574732 7.96503C0.0574732 12.4038 3.62611 16.0021 8.02865 16.0021C12.4312 16.0021 15.9998 12.4038 15.9998 7.96503L15.9543 7.50977Z" fill="#FFBA00" fill-opacity="0.0705882"/>
<path fill-rule="evenodd" clip-rule="evenodd" d="M15.9543 8.37109L15.8379 7.22347C15.0946 3.6142 11.8807 0.899151 8.02865 0.899151C4.17657 0.899151 0.962757 3.6142 0.219463 7.22347L0.102965 8.37109L0.0574732 7.92245C0.0574732 3.54803 3.62622 0.00184917 8.02865 0.00184917C12.431 0.00184917 15.9998 3.54803 15.9998 7.92245L15.9543 8.37109Z" fill="#FFBA00" fill-opacity="0.0980392"/>
</g>
</g>
</g>
<path d="M11.0196 6.8873C10.8728 6.56081 10.6282 6.29152 10.3217 6.11905C10.1448 6.01943 9.95138 5.95493 9.7514 5.92889C9.52617 5.89956 9.29749 5.91883 9.07988 5.98548L9.05796 5.9923C8.59378 6.14241 8.16331 6.38642 7.79175 6.71005L7.77625 6.71626C7.69936 6.72124 7.62187 6.72404 7.54371 6.72404C6.28731 6.72404 5.17926 6.07182 4.51953 5.07812C4.549 6.46802 5.30669 7.67282 6.41494 8.30388C6.14796 8.7303 5.92676 9.18535 5.75521 9.66102C5.74819 9.68047 5.7411 9.69986 5.73428 9.71938C5.49207 10.4099 5.35672 11.1354 5.33318 11.8693C5.54281 11.1525 5.95416 10.5159 6.51514 10.0402C6.54751 10.0126 6.58036 9.98558 6.6137 9.95915C6.73425 9.97342 6.85549 9.9806 6.97684 9.98065C7.73803 9.98182 8.47389 9.69892 9.04835 9.18428L9.05776 9.18496L9.05034 9.1825C9.25713 8.99729 9.43983 8.78531 9.5939 8.55185C9.64388 8.47608 9.6908 8.39809 9.73464 8.31788C9.78555 8.22478 9.83191 8.12888 9.87373 8.03019C9.94553 7.89984 10.0093 7.76496 10.0646 7.62634C10.2589 7.43249 10.5157 7.31915 10.786 7.30796C11.0562 7.29677 11.321 7.3885 11.5298 7.56566C11.4525 7.27942 11.2693 7.03585 11.0196 6.8873Z" fill="#FFF5CE"/>
</g>
<defs>
<linearGradient id="paint0_linear_1129_817" x1="8.02665" y1="13.6668" x2="8.02665" y2="2.34375" gradientUnits="userSpaceOnUse">
<stop stop-color="#FF8B00"/>
<stop offset="0.0178571" stop-color="#FF8C01"/>
<stop offset="0.0357143" stop-color="#FF8E02"/>
<stop offset="0.0535714" stop-color="#FF9003"/>
<stop offset="0.0714286" stop-color="#FF9204"/>
<stop offset="0.0892857" stop-color="#FF9405"/>
<stop offset="0.107143" stop-color="#FF9506"/>
<stop offset="0.125" stop-color="#FF9707"/>
<stop offset="0.142857" stop-color="#FF9908"/>
<stop offset="0.160714" stop-color="#FF9A08"/>
<stop offset="0.178571" stop-color="#FF9C09"/>
<stop offset="0.196429" stop-color="#FF9E0A"/>
<stop offset="0.214286" stop-color="#FF9F0B"/>
<stop offset="0.232143" stop-color="#FFA10C"/>
<stop offset="0.25" stop-color="#FFA20D"/>
<stop offset="0.267857" stop-color="#FFA40E"/>
<stop offset="0.285714" stop-color="#FFA50E"/>
<stop offset="0.303571" stop-color="#FFA70F"/>
<stop offset="0.321429" stop-color="#FFA810"/>
<stop offset="0.339286" stop-color="#FFA911"/>
<stop offset="0.357143" stop-color="#FFAB12"/>
<stop offset="0.375" stop-color="#FFAC12"/>
<stop offset="0.392857" stop-color="#FFAD13"/>
<stop offset="0.410714" stop-color="#FFAE14"/>
<stop offset="0.428571" stop-color="#FFB014"/>
<stop offset="0.446429" stop-color="#FFB115"/>
<stop offset="0.464286" stop-color="#FFB216"/>
<stop offset="0.482143" stop-color="#FFB316"/>
<stop offset="0.5" stop-color="#FFB417"/>
<stop offset="0.517857" stop-color="#FFB517"/>
<stop offset="0.535714" stop-color="#FFB618"/>
<stop offset="0.553571" stop-color="#FFB718"/>
<stop offset="0.571429" stop-color="#FFB819"/>
<stop offset="0.589286" stop-color="#FFB919"/>
<stop offset="0.607143" stop-color="#FFBA1A"/>
<stop offset="0.625" stop-color="#FFBA1A"/>
<stop offset="0.642857" stop-color="#FFBB1B"/>
<stop offset="0.660714" stop-color="#FFBC1B"/>
<stop offset="0.678571" stop-color="#FFBD1C"/>
<stop offset="0.696429" stop-color="#FFBD1C"/>
<stop offset="0.714286" stop-color="#FFBE1C"/>
<stop offset="0.732143" stop-color="#FFBF1D"/>
<stop offset="0.75" stop-color="#FFBF1D"/>
<stop offset="0.767857" stop-color="#FFC01D"/>
<stop offset="0.785714" stop-color="#FFC01E"/>
<stop offset="0.803571" stop-color="#FFC11E"/>
<stop offset="0.821429" stop-color="#FFC11E"/>
<stop offset="0.839286" stop-color="#FFC21E"/>
<stop offset="0.857143" stop-color="#FFC21F"/>
<stop offset="0.875" stop-color="#FFC21F"/>
<stop offset="0.892857" stop-color="#FFC31F"/>
<stop offset="0.910714" stop-color="#FFC31F"/>
<stop offset="0.928571" stop-color="#FFC31F"/>
<stop offset="0.946429" stop-color="#FFC31F"/>
<stop offset="0.964286" stop-color="#FFC31F"/>
<stop offset="0.982143" stop-color="#FFC31F"/>
<stop offset="1" stop-color="#FFC420"/>
</linearGradient>
<clipPath id="clip0_1129_817">
<rect width="16" height="16" fill="white" transform="matrix(-1 0 0 1 16 0)"/>
</clipPath>
</defs>
</svg>
