<svg width="41" height="41" viewBox="0 0 41 41" fill="none" xmlns="http://www.w3.org/2000/svg">
<rect x="0.5" y="0.5" width="40" height="40" rx="6" stroke="#FDCC02"/>
<path d="M30.25 28C30.25 28.1989 30.171 28.3897 30.0303 28.5303C29.8897 28.671 29.6989 28.75 29.5 28.75H11.5C11.3011 28.75 11.1103 28.671 10.9697 28.5303C10.829 28.3897 10.75 28.1989 10.75 28V13C10.75 12.8011 10.829 12.6103 10.9697 12.4697C11.1103 12.329 11.3011 12.25 11.5 12.25C11.6989 12.25 11.8897 12.329 12.0303 12.4697C12.171 12.6103 12.25 12.8011 12.25 13V23.1897L16.9694 18.4694C17.039 18.3996 17.1217 18.3443 17.2128 18.3066C17.3038 18.2688 17.4014 18.2494 17.5 18.2494C17.5986 18.2494 17.6962 18.2688 17.7872 18.3066C17.8783 18.3443 17.961 18.3996 18.0306 18.4694L20.5 20.9397L25.4397 16H23.5C23.3011 16 23.1103 15.921 22.9697 15.7803C22.829 15.6397 22.75 15.4489 22.75 15.25C22.75 15.0511 22.829 14.8603 22.9697 14.7197C23.1103 14.579 23.3011 14.5 23.5 14.5H27.25C27.4489 14.5 27.6397 14.579 27.7803 14.7197C27.921 14.8603 28 15.0511 28 15.25V19C28 19.1989 27.921 19.3897 27.7803 19.5303C27.6397 19.671 27.4489 19.75 27.25 19.75C27.0511 19.75 26.8603 19.671 26.7197 19.5303C26.579 19.3897 26.5 19.1989 26.5 19V17.0603L21.0306 22.5306C20.961 22.6004 20.8783 22.6557 20.7872 22.6934C20.6962 22.7312 20.5986 22.7506 20.5 22.7506C20.4014 22.7506 20.3038 22.7312 20.2128 22.6934C20.1217 22.6557 20.039 22.6004 19.9694 22.5306L17.5 20.0603L12.25 25.3103V27.25H29.5C29.6989 27.25 29.8897 27.329 30.0303 27.4697C30.171 27.6103 30.25 27.8011 30.25 28Z" fill="#FDCC02"/>
</svg>
